<?xml version="1.0" ?><svg id="Layer_1" style="enable-background:new 0 0 500 500;" version="1.1" viewBox="0 0 500 500" xml:space="preserve" xmlns="http://www.w3.org/2000/svg" xmlns:xlink="http://www.w3.org/1999/xlink"><style type="text/css">
	.st0{fill:none;stroke:#000000;stroke-width:10;stroke-miterlimit:10;}
</style><g id="pineapple"><g><g><g><g><path d="M210.15,266.09c-1.41,0-2.8-0.59-3.79-1.74l-19.79-23.02l-19.79,23.02c-1.8,2.09-4.96,2.33-7.05,0.53       c-2.09-1.8-2.33-4.96-0.53-7.05l27.37-31.84l27.37,31.84c1.8,2.09,1.56,5.25-0.53,7.05       C212.46,265.69,211.3,266.09,210.15,266.09z"/></g><g><path d="M273.58,266.09c-1.41,0-2.8-0.59-3.79-1.74L250,241.33l-19.79,23.02c-1.8,2.09-4.96,2.33-7.05,0.53       c-2.09-1.8-2.33-4.96-0.53-7.05L250,225.99l27.37,31.84c1.8,2.09,1.56,5.25-0.53,7.05       C275.9,265.69,274.74,266.09,273.58,266.09z"/></g><g><path d="M337.02,266.09c-1.41,0-2.8-0.59-3.79-1.74l-19.79-23.02l-19.79,23.02c-1.8,2.09-4.96,2.33-7.05,0.53       c-2.09-1.8-2.33-4.96-0.53-7.05l27.37-31.84l27.37,31.84c1.8,2.09,1.56,5.25-0.53,7.05       C339.33,265.69,338.17,266.09,337.02,266.09z"/></g></g><g><g><path d="M210.15,385.67c-1.41,0-2.8-0.59-3.79-1.74l-19.79-23.02l-19.79,23.02c-1.8,2.09-4.96,2.33-7.05,0.53       c-2.09-1.8-2.33-4.96-0.53-7.05l27.37-31.84l27.37,31.84c1.8,2.09,1.56,5.25-0.53,7.05       C212.46,385.27,211.3,385.67,210.15,385.67z"/></g><g><path d="M273.58,385.67c-1.41,0-2.8-0.59-3.79-1.74L250,360.91l-19.79,23.02c-1.8,2.09-4.96,2.33-7.05,0.53       c-2.09-1.8-2.33-4.96-0.53-7.05L250,345.57l27.37,31.84c1.8,2.09,1.56,5.25-0.53,7.05       C275.9,385.27,274.74,385.67,273.58,385.67z"/></g><g><path d="M337.02,385.67c-1.41,0-2.8-0.59-3.79-1.74l-19.79-23.02l-19.79,23.02c-1.8,2.09-4.96,2.33-7.05,0.53       c-2.09-1.8-2.33-4.96-0.53-7.05l27.37-31.84l27.37,31.84c1.8,2.09,1.56,5.25-0.53,7.05       C339.33,385.27,338.17,385.67,337.02,385.67z"/></g></g></g><g><g><g><path d="M195.05,324.66c-1.15,0-2.31-0.4-3.26-1.21c-2.09-1.8-2.33-4.96-0.53-7.05l27.37-31.84l27.37,31.84       c1.8,2.09,1.56,5.25-0.53,7.05c-2.09,1.8-5.25,1.56-7.05-0.53l-19.79-23.02l-19.79,23.02       C197.86,324.07,196.46,324.66,195.05,324.66z"/></g><g><path d="M304.95,324.66c-1.41,0-2.8-0.59-3.79-1.74l-19.79-23.02l-19.79,23.02c-1.8,2.09-4.96,2.33-7.05,0.53       c-2.09-1.8-2.33-4.96-0.53-7.05l27.37-31.84l27.37,31.84c1.8,2.09,1.56,5.25-0.53,7.05       C307.26,324.26,306.1,324.66,304.95,324.66z"/></g></g><g><g><path d="M242.22,444.24c-1.41,0-2.8-0.59-3.79-1.74l-19.79-23.02l-19.79,23.02c-1.8,2.09-4.96,2.33-7.05,0.53       c-2.09-1.8-2.33-4.96-0.53-7.05l27.37-31.84l27.37,31.84c1.8,2.09,1.56,5.25-0.53,7.05       C244.53,443.84,243.37,444.24,242.22,444.24z"/></g><g><path d="M257.78,444.24c-1.15,0-2.31-0.4-3.26-1.21c-2.09-1.8-2.33-4.96-0.53-7.05l27.37-31.84l27.37,31.84       c1.8,2.09,1.56,5.25-0.53,7.05c-2.09,1.8-5.25,1.56-7.05-0.53l-19.79-23.02l-19.79,23.02       C260.58,443.65,259.19,444.24,257.78,444.24z"/></g></g></g></g><g><path d="M254.29,489.19h-8.57c-66.75,0-121.06-54.31-121.06-121.06v-75.22c0-66.75,54.31-121.06,121.06-121.06h8.57    c66.75,0,121.06,54.31,121.06,121.06v75.22C375.35,434.88,321.04,489.19,254.29,489.19z M245.71,181.85    c-61.24,0-111.06,49.82-111.06,111.06v75.22c0,61.24,49.82,111.06,111.06,111.06h8.57c61.24,0,111.06-49.82,111.06-111.06v-75.22    c0-61.24-49.82-111.06-111.06-111.06H245.71z"/></g><g><path d="M307.37,195.31l-2-1.04c-15.89-8.25-33.08-12.43-51.09-12.43h-8.57c-18.01,0-35.2,4.18-51.09,12.43l-2,1.04l-2.1-0.8    c-32.47-12.44-49.46-33.94-58-49.79c-9.28-17.23-10.83-31.49-10.9-32.08l-0.62-5.98l5.99,0.48c14.49,1.17,28.11,3.63,40.63,7.34    c-7.18-30.55,1.19-54.22,1.58-55.3l2.05-5.65l5.18,3.05c18.56,10.91,33.86,28.08,45.21,42.04c2.11-44.82,16.12-72.5,24.82-85.57    l4.47-6.72l4.02,7c0.83,1.43,18.56,32.91,20,84.08c12.87-15.28,29.53-28.98,49.7-40.83l5.18-3.05l2.05,5.65    c0.39,1.08,8.7,24.56,1.67,54.95c12.18-3.51,25.39-5.86,39.39-6.99l5.99-0.48l-0.62,5.98c-0.06,0.6-1.62,14.86-10.9,32.08    c-8.54,15.85-25.53,37.35-58,49.79L307.37,195.31z M245.71,171.85h8.57c18.59,0,37.08,4.32,53.65,12.52    c22.74-9.19,39.8-24.11,50.72-44.39c4.84-8.98,7.34-17.03,8.59-22.24c-14.15,1.57-27.34,4.49-39.28,8.68l-9.54,3.35l3.12-9.61    c7.26-22.37,4.68-42.05,2.59-51.55c-21.39,13.42-38.21,29.05-50.06,46.54l-9.76,14.39l0.62-17.38    c1.48-41.46-8.93-72.08-14.8-85.83c-17.21,31.39-18.87,70.12-18.72,86.2l0.13,14.54l-11.13-14.01    c-10.21-12.9-25.16-31.78-43.44-44.31c-2.1,9.61-4.64,29.4,2.76,51.83l3.22,9.76l-9.67-3.49c-12.26-4.43-25.87-7.49-40.53-9.12    c1.28,5.31,3.84,13.54,8.78,22.62c10.94,20.08,27.93,34.88,50.52,44.01C208.63,176.17,227.13,171.85,245.71,171.85z"/></g></g></svg>